solid ASCII
  facet normal 0.000000e+00 0.000000e+00 1.000000e+00
    outer loop
      vertex   -5.000000e-01 0.000000e+00 5.000000e-01
      vertex   5.000000e-01 0.000000e+00 5.000000e-01
      vertex   -5.000000e-01 1.000000e+00 5.000000e-01
    endloop
  endfacet
  facet normal -0.000000e+00 0.000000e+00 1.000000e+00
    outer loop
      vertex   -5.000000e-01 1.000000e+00 5.000000e-01
      vertex   5.000000e-01 0.000000e+00 5.000000e-01
      vertex   5.000000e-01 1.000000e+00 5.000000e-01
    endloop
  endfacet
  facet normal -1.000000e+00 0.000000e+00 -1.665335e-16
    outer loop
      vertex   -5.000000e-01 0.000000e+00 -5.000000e-01
      vertex   -5.000000e-01 0.000000e+00 5.000000e-01
      vertex   -5.000000e-01 1.000000e+00 -5.000000e-01
    endloop
  endfacet
  facet normal -1.000000e+00 0.000000e+00 -1.665335e-16
    outer loop
      vertex   -5.000000e-01 1.000000e+00 -5.000000e-01
      vertex   -5.000000e-01 0.000000e+00 5.000000e-01
      vertex   -5.000000e-01 1.000000e+00 5.000000e-01
    endloop
  endfacet
  facet normal 0.000000e+00 0.000000e+00 -1.000000e+00
    outer loop
      vertex   5.000000e-01 0.000000e+00 -5.000000e-01
      vertex   -5.000000e-01 0.000000e+00 -5.000000e-01
      vertex   5.000000e-01 1.000000e+00 -5.000000e-01
    endloop
  endfacet
  facet normal -0.000000e+00 0.000000e+00 -1.000000e+00
    outer loop
      vertex   5.000000e-01 1.000000e+00 -5.000000e-01
      vertex   -5.000000e-01 0.000000e+00 -5.000000e-01
      vertex   -5.000000e-01 1.000000e+00 -5.000000e-01
    endloop
  endfacet
  facet normal 1.000000e+00 -0.000000e+00 0.000000e+00
    outer loop
      vertex   5.000000e-01 0.000000e+00 5.000000e-01
      vertex   5.000000e-01 0.000000e+00 -5.000000e-01
      vertex   5.000000e-01 1.000000e+00 5.000000e-01
    endloop
  endfacet
  facet normal 1.000000e+00 0.000000e+00 0.000000e+00
    outer loop
      vertex   5.000000e-01 1.000000e+00 5.000000e-01
      vertex   5.000000e-01 0.000000e+00 -5.000000e-01
      vertex   5.000000e-01 1.000000e+00 -5.000000e-01
    endloop
  endfacet
  facet normal 0.000000e+00 1.000000e+00 0.000000e+00
    outer loop
      vertex   5.000000e-01 1.000000e+00 5.000000e-01
      vertex   5.000000e-01 1.000000e+00 -5.000000e-01
      vertex   -5.000000e-01 1.000000e+00 5.000000e-01
    endloop
  endfacet
  facet normal 0.000000e+00 1.000000e+00 0.000000e+00
    outer loop
      vertex   -5.000000e-01 1.000000e+00 5.000000e-01
      vertex   5.000000e-01 1.000000e+00 -5.000000e-01
      vertex   -5.000000e-01 1.000000e+00 -5.000000e-01
    endloop
  endfacet
  facet normal -0.000000e+00 -1.000000e+00 -0.000000e+00
    outer loop
      vertex   5.000000e-01 0.000000e+00 5.000000e-01
      vertex   -5.000000e-01 0.000000e+00 5.000000e-01
      vertex   5.000000e-01 0.000000e+00 -5.000000e-01
    endloop
  endfacet
  facet normal 0.000000e+00 -1.000000e+00 0.000000e+00
    outer loop
      vertex   5.000000e-01 0.000000e+00 -5.000000e-01
      vertex   -5.000000e-01 0.000000e+00 5.000000e-01
      vertex   -5.000000e-01 0.000000e+00 -5.000000e-01
    endloop
  endfacet
endsolid
