solid ASCII
  facet normal -1.000000e+00 0.000000e+00 0.000000e+00
    outer loop
      vertex   -1.800000e+01 1.600000e+01 0.000000e+00
      vertex   -1.800000e+01 3.000000e+00 0.000000e+00
      vertex   -1.800000e+01 1.600000e+01 1.440000e+02
    endloop
  endfacet
  facet normal -1.000000e+00 -0.000000e+00 0.000000e+00
    outer loop
      vertex   -1.800000e+01 1.600000e+01 1.440000e+02
      vertex   -1.800000e+01 3.000000e+00 0.000000e+00
      vertex   -1.800000e+01 3.000000e+00 1.440000e+02
    endloop
  endfacet
  facet normal 0.000000e+00 1.000000e+00 -0.000000e+00
    outer loop
      vertex   1.800000e+01 1.600000e+01 0.000000e+00
      vertex   -1.800000e+01 1.600000e+01 0.000000e+00
      vertex   1.800000e+01 1.600000e+01 1.440000e+02
    endloop
  endfacet
  facet normal 0.000000e+00 1.000000e+00 0.000000e+00
    outer loop
      vertex   1.800000e+01 1.600000e+01 1.440000e+02
      vertex   -1.800000e+01 1.600000e+01 0.000000e+00
      vertex   -1.800000e+01 1.600000e+01 1.440000e+02
    endloop
  endfacet
  facet normal 1.000000e+00 0.000000e+00 0.000000e+00
    outer loop
      vertex   1.800000e+01 3.000000e+00 0.000000e+00
      vertex   1.800000e+01 1.600000e+01 0.000000e+00
      vertex   1.800000e+01 3.000000e+00 1.440000e+02
    endloop
  endfacet
  facet normal 1.000000e+00 -0.000000e+00 0.000000e+00
    outer loop
      vertex   1.800000e+01 3.000000e+00 1.440000e+02
      vertex   1.800000e+01 1.600000e+01 0.000000e+00
      vertex   1.800000e+01 1.600000e+01 1.440000e+02
    endloop
  endfacet
  facet normal 1.643990e-01 -9.863939e-01 0.000000e+00
    outer loop
      vertex   0.000000e+00 0.000000e+00 0.000000e+00
      vertex   1.800000e+01 3.000000e+00 0.000000e+00
      vertex   0.000000e+00 0.000000e+00 1.440000e+02
    endloop
  endfacet
  facet normal 1.643990e-01 -9.863939e-01 0.000000e+00
    outer loop
      vertex   0.000000e+00 0.000000e+00 1.440000e+02
      vertex   1.800000e+01 3.000000e+00 0.000000e+00
      vertex   1.800000e+01 3.000000e+00 1.440000e+02
    endloop
  endfacet
  facet normal -1.643990e-01 -9.863939e-01 0.000000e+00
    outer loop
      vertex   -1.800000e+01 3.000000e+00 0.000000e+00
      vertex   0.000000e+00 0.000000e+00 0.000000e+00
      vertex   -1.800000e+01 3.000000e+00 1.440000e+02
    endloop
  endfacet
  facet normal -1.643990e-01 -9.863939e-01 0.000000e+00
    outer loop
      vertex   -1.800000e+01 3.000000e+00 1.440000e+02
      vertex   0.000000e+00 0.000000e+00 0.000000e+00
      vertex   0.000000e+00 0.000000e+00 1.440000e+02
    endloop
  endfacet
  facet normal -0.000000e+00 0.000000e+00 1.000000e+00
    outer loop
      vertex   -1.800000e+01 3.000000e+00 1.440000e+02
      vertex   0.000000e+00 0.000000e+00 1.440000e+02
      vertex   -1.800000e+01 1.600000e+01 1.440000e+02
    endloop
  endfacet
  facet normal 0.000000e+00 0.000000e+00 1.000000e+00
    outer loop
      vertex   -1.800000e+01 1.600000e+01 1.440000e+02
      vertex   0.000000e+00 0.000000e+00 1.440000e+02
      vertex   1.800000e+01 3.000000e+00 1.440000e+02
    endloop
  endfacet
  facet normal -0.000000e+00 0.000000e+00 1.000000e+00
    outer loop
      vertex   -1.800000e+01 1.600000e+01 1.440000e+02
      vertex   1.800000e+01 3.000000e+00 1.440000e+02
      vertex   1.800000e+01 1.600000e+01 1.440000e+02
    endloop
  endfacet
  facet normal -0.000000e+00 0.000000e+00 -1.000000e+00
    outer loop
      vertex   1.800000e+01 3.000000e+00 0.000000e+00
      vertex   0.000000e+00 0.000000e+00 0.000000e+00
      vertex   1.800000e+01 1.600000e+01 0.000000e+00
    endloop
  endfacet
  facet normal 0.000000e+00 0.000000e+00 -1.000000e+00
    outer loop
      vertex   1.800000e+01 1.600000e+01 0.000000e+00
      vertex   0.000000e+00 0.000000e+00 0.000000e+00
      vertex   -1.800000e+01 3.000000e+00 0.000000e+00
    endloop
  endfacet
  facet normal -0.000000e+00 0.000000e+00 -1.000000e+00
    outer loop
      vertex   1.800000e+01 1.600000e+01 0.000000e+00
      vertex   -1.800000e+01 3.000000e+00 0.000000e+00
      vertex   -1.800000e+01 1.600000e+01 0.000000e+00
    endloop
  endfacet
endsolid
